<?xml version="1.0" encoding="UTF-8" standalone="no"?>
<svg width="30px" height="30px" viewBox="0 0 30 30" version="1.1" xmlns="http://www.w3.org/2000/svg" xmlns:xlink="http://www.w3.org/1999/xlink" xmlns:sketch="http://www.bohemiancoding.com/sketch/ns">
    <!-- Generator: Sketch 3.4.4 (17249) - http://www.bohemiancoding.com/sketch -->
    <title>jarvis-colour</title>
    <desc>Created with Sketch.</desc>
    <defs>
        <radialGradient cx="50%" cy="50.7014054%" fx="50%" fy="50.7014054%" r="49.3579548%" id="radialGradient-1">
            <stop stop-color="#21DACB" offset="0%"></stop>
            <stop stop-color="#00FFE0" offset="0%"></stop>
            <stop stop-color="#70C3FF" offset="100%"></stop>
        </radialGradient>
    </defs>
    <g id="Icons" stroke="none" stroke-width="1" fill="none" fill-rule="evenodd" sketch:type="MSPage">
        <g id="Icons---Stream" sketch:type="MSArtboardGroup" transform="translate(-14.000000, -480.000000)">
            <g id="jarvis-colour" sketch:type="MSLayerGroup" transform="translate(14.000000, 480.000000)">
                <path d="M15,30 L15,30 C6.71572875,30 0,23.2842712 0,15 C0,6.71572875 6.71572875,0 15,0 C23.2842712,0 30,6.71572875 30,15 C30,23.2842712 23.2842712,30 15,30 L15,30 Z" id="Path" fill="url(#radialGradient-1)" sketch:type="MSShapeGroup"></path>
                <path d="M15,30 C6.71572875,30 0,23.2842712 0,15 C0,6.71572875 6.71572875,0 15,0 C23.2842712,0 30,6.71572875 30,15 C30,23.2842712 23.2842712,30 15,30 Z M15,22 C11.1340068,22 8,18.8659932 8,15 C8,11.1340068 11.1340068,8 15,8 C18.8659932,8 22,11.1340068 22,15 C22,18.8659932 18.8659932,22 15,22 Z M15,21 C18.3137085,21 21,18.3137085 21,15 C21,11.6862915 18.3137085,9 15,9 C11.6862915,9 9,11.6862915 9,15 C9,18.3137085 11.6862915,21 15,21 Z M15,18 C16.6568542,18 18,16.6568542 18,15 C18,13.3431458 16.6568542,12 15,12 C13.3431458,12 12,13.3431458 12,15 C12,16.6568542 13.3431458,18 15,18 Z M4.64211872,7.1429843 C3.34148904,8.85495016 2.45557207,10.8991928 2.13407209,13.126008 L5.11822455,13.4575805 C5.37324208,11.8104169 6.03024049,10.2960718 6.98581981,9.01794517 L4.64211872,7.1429843 L4.64211872,7.1429843 Z M7.37688323,4.46850213 C9.01137796,3.283334 10.9325628,2.46936454 13.0167031,2.15032834 L13.3484162,5.13574554 C11.8433704,5.3858716 10.4519397,5.97210992 9.25386062,6.81472387 L7.37688323,4.46850213 Z M25.4854248,22.6862583 C26.7164311,21.0097792 27.5550493,19.0272398 27.8659279,16.873992 L24.8817754,16.5424195 C24.638112,18.1162471 24.0274653,19.5688197 23.1400301,20.8099426 L25.4854248,22.6862583 L25.4854248,22.6862583 Z M22.9190671,25.3104456 C21.1945363,26.6369705 19.1277749,27.5405344 16.873992,27.8659279 L16.5424195,24.8817754 C18.2164631,24.6225963 19.7533179,23.9482094 21.0444387,22.96716 L22.9190671,25.3104456 L22.9190671,25.3104456 Z M4.78208547,23.0379355 C3.40504979,21.289847 2.46697634,19.1797969 2.13407209,16.873992 L5.11822455,16.5424195 C5.38543141,18.2683143 6.09396535,19.8483902 7.12487944,21.1637003 L4.78208547,23.0379355 L4.78208547,23.0379355 Z M7.52598144,25.6380183 C9.15658275,26.7857502 11.0629409,27.5680693 13.126008,27.8659279 L13.4575805,24.8817754 C11.9736787,24.6520345 10.5975712,24.0960498 9.40485854,23.2894219 L7.52598144,25.6380183 L7.52598144,25.6380183 Z M25.6828651,7.59010403 C26.8061316,9.20647719 27.5719651,11.0899244 27.8659279,13.126008 L24.8817754,13.4575805 C24.6562017,12.0005948 24.1161121,10.6475283 23.3330677,9.46994195 L25.6828651,7.59010403 L25.6828651,7.59010403 Z M22.9764471,4.73394597 C21.2682526,3.40481369 19.2195827,2.49265468 16.9832969,2.15032834 L16.6515838,5.13574554 C18.3081588,5.41105448 19.8270893,6.09356281 21.1020488,7.0769439 L22.9764471,4.73394597 L22.9764471,4.73394597 Z" id="Path" fill="#333333" sketch:type="MSShapeGroup"></path>
            </g>
        </g>
    </g>
</svg>